<?xml version="1.0" encoding="UTF-8"?>
<svg id="logo" xmlns="http://www.w3.org/2000/svg" viewBox="0 0 402 112">
  <defs>
    <style>
      .cls-1 {
        fill: #fff;
        stroke-width: 0px;
      }
    </style>
  </defs>
  <path class="cls-1" d="m37.91,44.23l-1.22-3.32c2.71-.79,5.28-2,7.7-3.63,2.42-1.63,4.32-3.44,5.71-5.42,1.38-1.98,2.08-3.94,2.08-5.86,0-1.43-.46-2.55-1.38-3.37-.92-.82-2.15-1.22-3.69-1.22-1.84,0-3.85.48-6.03,1.44s-4.35,2.3-6.49,4.02c-2.14,1.72-4.19,3.79-6.14,6.21-2.13,2.65-3.91,5.42-5.33,8.31-1.43,2.89-2.51,5.82-3.24,8.81-.73,2.99-1.09,6.09-1.09,9.29,0,5.45,1.25,9.77,3.76,12.96,2.51,3.19,5.93,4.79,10.27,4.79,2.8,0,5.52-.63,8.15-1.88,2.64-1.25,5.66-3.35,9.07-6.3l.7-.57.52.96c-3.47,3.44-6.95,6.02-10.45,7.74-3.5,1.72-7.03,2.58-10.58,2.58-3.21,0-6.06-.76-8.55-2.29-2.49-1.53-4.42-3.67-5.77-6.43-1.36-2.75-2.03-5.98-2.03-9.68,0-2.68.39-5.48,1.18-8.4.79-2.91,1.96-5.87,3.52-8.85,1.56-2.99,3.4-5.88,5.53-8.68,2.24-2.97,4.74-5.63,7.48-7.98,2.74-2.35,5.49-4.16,8.24-5.44,2.75-1.28,5.22-1.92,7.41-1.92,2.07,0,3.72.59,4.96,1.77,1.24,1.18,1.86,2.78,1.86,4.79,0,2.24-.74,4.58-2.23,7.02-1.49,2.43-3.47,4.61-5.95,6.51-2.48,1.91-5.13,3.26-7.96,4.04Z"/>
  <path class="cls-1" d="m54.44,79.08l11.63-59.81,4.59-2.23-12.11,53.25c.12-.2.18-.33.18-.39l1.01-2.27c1.72-3.91,3.88-7.29,6.47-10.14,2.45-2.65,4.71-3.98,6.78-3.98,1.11,0,2,.36,2.67,1.07.67.72,1.01,1.67,1.01,2.86,0,.67-.16,1.62-.48,2.84l-.44,1.84-1.36,5.33-.39,1.71c-.44,1.75-.66,3.09-.66,4.02s.16,1.68.48,2.25c.32.57.74.85,1.27.85.9,0,2.35-1.08,4.33-3.24l.66.61-.39.48c-1.66,1.95-2.89,3.27-3.69,3.96-.8.68-1.52,1.03-2.16,1.03-.9,0-1.68-.48-2.32-1.44-.64-.96-.96-2.08-.96-3.37,0-.79.19-2.17.57-4.15l1.66-9.27c.26-1.37.39-2.39.39-3.06,0-.61-.16-1.08-.48-1.4-.32-.32-.76-.48-1.31-.48-1.08,0-2.32.63-3.72,1.9-1.4,1.27-2.81,3.02-4.22,5.27-1.41,2.25-2.65,4.64-3.69,7.19s-1.84,5.17-2.36,7.85l-2.93.92Z"/>
  <path class="cls-1" d="m91.39,53.06l-4.24,16.92c-.38,1.52-.57,2.8-.57,3.85s.32,1.84.96,2.45c.64.61,1.47.92,2.49.92,2.48,0,5.06-2.03,7.74-6.08l.17-.26c.06-.29.1-.52.13-.7l2.75-15.3,4.28-1.79-3.85,14.38c-.64,2.36-.96,4.26-.96,5.68,0,.93.16,1.69.48,2.27.32.58.74.87,1.27.87.9,0,2.35-1.08,4.33-3.24l.7.61-.44.48c-1.66,1.95-2.89,3.27-3.67,3.96-.79.68-1.52,1.03-2.19,1.03-.9,0-1.67-.46-2.3-1.38-.63-.92-.94-2.06-.94-3.43,0-.44.01-.85.04-1.22-3.03,4.02-6.03,6.03-9.01,6.03-1.49,0-2.67-.43-3.56-1.29-.89-.86-1.33-2-1.33-3.43,0-1.11.16-2.46.48-4.07l2.97-15.48,4.24-1.79Z"/>
  <path class="cls-1" d="m109.49,66.22c2.51-3.03,4.18-5.86,5.03-8.48-2.36-1.31-3.54-3.19-3.54-5.64,0-1.17.28-2.11.83-2.84.55-.73,1.25-1.09,2.1-1.09s1.59.4,2.14,1.2c.55.8.83,1.84.83,3.13,0,.9-.16,1.91-.48,3.02.79.2,1.5.31,2.14.31,1.81,0,3.29-.53,4.46-1.57h2.1l-.31.61c-2.1,3.85-3.83,7.63-5.18,11.35-1.36,3.72-2.03,6.49-2.03,8.33,0,.67.17,1.23.52,1.68.35.45.77.68,1.27.68,1.2,0,3.12-1.27,5.77-3.8l.7.79c-.82.9-2.08,2.03-3.8,3.37-1.55,1.22-2.99,1.84-4.33,1.84-1.14,0-2.03-.38-2.69-1.14-.66-.76-.98-1.79-.98-3.1,0-2.19.85-4.96,2.54-8.31.61-1.25,1.4-2.68,2.36-4.29.96-1.6,2.17-3.51,3.63-5.73l.44-.61c-.96.88-1.89,1.49-2.78,1.86-.89.37-1.9.55-3.04.55-.52,0-1.08-.07-1.66-.22-.93,2.86-2.68,5.8-5.25,8.83l-.79-.7Zm5.99-11.11c.12-.73.17-1.34.17-1.84,0-1.02-.17-1.82-.5-2.4-.34-.58-.77-.87-1.29-.87-.29,0-.55.14-.77.42-.22.28-.33.62-.33,1.03,0,1.37.9,2.59,2.71,3.67Z"/>
  <path class="cls-1" d="m147.22,72.08c-1.78,2.51-3.51,4.34-5.18,5.49-1.68,1.15-3.53,1.73-5.57,1.73-2.24,0-4.07-.79-5.49-2.36s-2.12-3.61-2.12-6.12.69-5.29,2.06-8,3.13-4.96,5.27-6.73c2.14-1.78,4.2-2.67,6.19-2.67,1.34,0,2.42.37,3.24,1.12.82.74,1.22,1.74,1.22,3,0,1.14-.43,2.22-1.29,3.26-.86,1.04-1.79,1.55-2.78,1.55-.44,0-.83-.17-1.18-.52,1.89-.85,2.84-2.42,2.84-4.72,0-.82-.21-1.45-.63-1.9-.42-.45-.98-.68-1.68-.68-1.08,0-2.16.44-3.26,1.31-1.09.87-2.12,2.09-3.08,3.65-.96,1.56-1.71,3.22-2.25,4.98-.54,1.76-.81,3.55-.81,5.36,0,2.16.51,3.91,1.53,5.25,1.02,1.34,2.36,2.01,4.02,2.01,1.43,0,2.81-.45,4.15-1.36,1.34-.9,2.74-2.29,4.2-4.15l.61.52Z"/>
  <path class="cls-1" d="m150.06,79.08l11.63-59.81,4.59-2.23-12.11,53.25c.12-.2.18-.33.18-.39l1.01-2.27c1.72-3.91,3.88-7.29,6.47-10.14,2.45-2.65,4.71-3.98,6.78-3.98,1.11,0,2,.36,2.67,1.07.67.72,1.01,1.67,1.01,2.86,0,.67-.16,1.62-.48,2.84l-.44,1.84-1.36,5.33-.39,1.71c-.44,1.75-.66,3.09-.66,4.02s.16,1.68.48,2.25c.32.57.74.85,1.27.85.9,0,2.35-1.08,4.33-3.24l.66.61-.39.48c-1.66,1.95-2.89,3.27-3.69,3.96-.8.68-1.52,1.03-2.16,1.03-.9,0-1.68-.48-2.32-1.44-.64-.96-.96-2.08-.96-3.37,0-.79.19-2.17.57-4.15l1.66-9.27c.26-1.37.39-2.39.39-3.06,0-.61-.16-1.08-.48-1.4-.32-.32-.76-.48-1.31-.48-1.08,0-2.32.63-3.72,1.9-1.4,1.27-2.81,3.02-4.22,5.27-1.41,2.25-2.65,4.64-3.69,7.19s-1.84,5.17-2.36,7.85l-2.93.92Z"/>
  <path class="cls-1" d="m193.65,70.25c0-2.62.71-5.24,2.12-7.85,1.41-2.61,3.24-4.73,5.49-6.36,2.24-1.63,4.53-2.45,6.86-2.45,2.45,0,4.42.81,5.92,2.43,1.5,1.62,2.25,3.71,2.25,6.27,0,2.8-.69,5.51-2.08,8.13-1.38,2.62-3.21,4.77-5.47,6.45s-4.54,2.51-6.84,2.51c-2.48,0-4.47-.84-5.99-2.51-1.52-1.68-2.27-3.88-2.27-6.62Zm18.71-9.62c0-1.75-.43-3.19-1.29-4.33-.86-1.14-1.96-1.71-3.3-1.71-1.22,0-2.4.39-3.52,1.18s-2.15,1.94-3.08,3.45c-1.05,1.75-1.92,3.79-2.6,6.12-.69,2.33-1.03,4.4-1.03,6.21,0,2.16.42,3.82,1.27,4.98.84,1.17,2.06,1.75,3.63,1.75,2.54,0,4.77-1.76,6.69-5.29.99-1.81,1.78-3.83,2.36-6.08.58-2.24.88-4.34.88-6.3Z"/>
  <path class="cls-1" d="m225.31,55.29h-4.29l.31-1.49h4.33l4.11-19.19c.7-3.18,1.41-5.71,2.14-7.61.73-1.89,1.6-3.53,2.62-4.9,2.51-3.35,5.62-5.03,9.36-5.03,1.25,0,2.41.2,3.45.61l-1.57,3.98c-1.17-1.63-2.65-2.45-4.46-2.45-1.37,0-2.49.53-3.34,1.6-.86,1.06-1.6,2.82-2.21,5.27l-6.69,27.72h7.04l-.31,1.49h-7.08l-5.99,24.83c-.79,3.32-1.55,5.8-2.29,7.43-.74,1.63-1.76,3.15-3.04,4.55-2.33,2.54-4.88,3.8-7.65,3.8-1.34,0-2.54-.23-3.58-.7l2.14-3.15c1.22.99,2.55,1.49,3.98,1.49,2.16,0,3.78-1.14,4.85-3.41.79-1.69,1.62-4.49,2.49-8.39l5.68-26.45Z"/>
  <path class="cls-1" d="m276.16,44.23l-1.22-3.32c2.71-.79,5.28-2,7.7-3.63,2.42-1.63,4.32-3.44,5.71-5.42,1.38-1.98,2.08-3.94,2.08-5.86,0-1.43-.46-2.55-1.38-3.37-.92-.82-2.15-1.22-3.69-1.22-1.84,0-3.85.48-6.03,1.44-2.19.96-4.35,2.3-6.49,4.02-2.14,1.72-4.19,3.79-6.14,6.21-2.13,2.65-3.91,5.42-5.33,8.31-1.43,2.89-2.51,5.82-3.24,8.81-.73,2.99-1.09,6.09-1.09,9.29,0,5.45,1.25,9.77,3.76,12.96,2.51,3.19,5.93,4.79,10.27,4.79,2.8,0,5.52-.63,8.15-1.88,2.64-1.25,5.66-3.35,9.07-6.3l.7-.57.52.96c-3.47,3.44-6.95,6.02-10.45,7.74-3.5,1.72-7.03,2.58-10.58,2.58-3.21,0-6.06-.76-8.55-2.29-2.49-1.53-4.42-3.67-5.77-6.43s-2.03-5.98-2.03-9.68c0-2.68.39-5.48,1.18-8.4.79-2.91,1.96-5.87,3.52-8.85,1.56-2.99,3.4-5.88,5.53-8.68,2.24-2.97,4.74-5.63,7.48-7.98,2.74-2.35,5.49-4.16,8.24-5.44,2.75-1.28,5.23-1.92,7.41-1.92,2.07,0,3.72.59,4.96,1.77,1.24,1.18,1.86,2.78,1.86,4.79,0,2.24-.74,4.58-2.23,7.02-1.49,2.43-3.47,4.61-5.95,6.51-2.48,1.91-5.13,3.26-7.96,4.04Z"/>
  <path class="cls-1" d="m292.69,79.08l11.63-59.81,4.59-2.23-12.11,53.25c.12-.2.17-.33.17-.39l1.01-2.27c1.72-3.91,3.88-7.29,6.47-10.14,2.45-2.65,4.71-3.98,6.78-3.98,1.11,0,2,.36,2.67,1.07.67.72,1.01,1.67,1.01,2.86,0,.67-.16,1.62-.48,2.84l-.44,1.84-1.36,5.33-.39,1.71c-.44,1.75-.66,3.09-.66,4.02s.16,1.68.48,2.25.74.85,1.27.85c.9,0,2.35-1.08,4.33-3.24l.66.61-.39.48c-1.66,1.95-2.89,3.27-3.69,3.96-.8.68-1.52,1.03-2.17,1.03-.9,0-1.68-.48-2.32-1.44s-.96-2.08-.96-3.37c0-.79.19-2.17.57-4.15l1.66-9.27c.26-1.37.39-2.39.39-3.06,0-.61-.16-1.08-.48-1.4s-.76-.48-1.31-.48c-1.08,0-2.32.63-3.72,1.9-1.4,1.27-2.81,3.02-4.22,5.27-1.41,2.25-2.65,4.64-3.69,7.19-1.05,2.55-1.84,5.17-2.36,7.85l-2.93.92Z"/>
  <path class="cls-1" d="m320.76,66.22c2.51-3.03,4.18-5.86,5.03-8.48-2.36-1.31-3.54-3.19-3.54-5.64,0-1.17.28-2.11.83-2.84.55-.73,1.25-1.09,2.1-1.09s1.59.4,2.14,1.2.83,1.84.83,3.13c0,.9-.16,1.91-.48,3.02.79.2,1.5.31,2.14.31,1.81,0,3.29-.53,4.46-1.57h2.1l-.31.61c-2.1,3.85-3.83,7.63-5.18,11.35-1.36,3.72-2.03,6.49-2.03,8.33,0,.67.17,1.23.52,1.68.35.45.77.68,1.27.68,1.19,0,3.12-1.27,5.77-3.8l.7.79c-.82.9-2.08,2.03-3.8,3.37-1.55,1.22-2.99,1.84-4.33,1.84-1.14,0-2.03-.38-2.69-1.14-.66-.76-.98-1.79-.98-3.1,0-2.19.85-4.96,2.54-8.31.61-1.25,1.4-2.68,2.36-4.29.96-1.6,2.17-3.51,3.63-5.73l.44-.61c-.96.88-1.89,1.49-2.78,1.86-.89.37-1.9.55-3.04.55-.52,0-1.08-.07-1.66-.22-.93,2.86-2.68,5.8-5.25,8.83l-.79-.7Zm5.99-11.11c.12-.73.17-1.34.17-1.84,0-1.02-.17-1.82-.5-2.4-.33-.58-.76-.87-1.29-.87-.29,0-.55.14-.76.42-.22.28-.33.62-.33,1.03,0,1.37.9,2.59,2.71,3.67Z"/>
  <path class="cls-1" d="m348.87,53.06l-3.85,14.38c-.64,2.36-.96,4.26-.96,5.68,0,.93.16,1.69.48,2.27.32.58.74.87,1.27.87.9,0,2.35-1.08,4.33-3.24l.7.61-.44.48c-1.66,1.95-2.89,3.27-3.67,3.96s-1.52,1.03-2.19,1.03c-.9,0-1.67-.46-2.29-1.38-.63-.92-.94-2.06-.94-3.43,0-.88.17-2.26.52-4.15l2.75-15.3,4.29-1.79Zm1.27-17.14c.76,0,1.37.23,1.84.7.47.47.7,1.08.7,1.84s-.25,1.34-.74,1.84-1.09.74-1.79.74-1.27-.26-1.79-.79c-.52-.52-.79-1.12-.79-1.79s.25-1.3.74-1.79c.5-.5,1.11-.74,1.84-.74Z"/>
  <path class="cls-1" d="m350.62,75.84l2.45-2.89c1.28,3.03,3.32,4.55,6.12,4.55,1.46,0,2.7-.47,3.74-1.42,1.03-.95,1.55-2.05,1.55-3.3,0-.9-.25-1.68-.74-2.32-.5-.64-1.68-1.72-3.54-3.24-1.72-1.4-2.88-2.5-3.48-3.3s-.9-1.73-.9-2.78c0-1.37.4-2.64,1.2-3.8.8-1.17,1.87-2.11,3.21-2.82,1.34-.71,2.75-1.07,4.24-1.07,1.31,0,2.41.33,3.3.98.89.66,1.33,1.49,1.33,2.51,0,1.34-.57,2.26-1.71,2.75-.17-1.37-.69-2.44-1.55-3.21-.86-.77-1.96-1.16-3.3-1.16-1.2,0-2.24.39-3.13,1.16-.89.77-1.33,1.65-1.33,2.64,0,1.22.76,2.43,2.27,3.63l2.54,2.05c2.48,1.95,3.72,3.95,3.72,5.99,0,1.52-.43,2.94-1.29,4.26-.86,1.33-2.03,2.38-3.5,3.17-1.47.79-3.02,1.18-4.66,1.18-2.59,0-4.78-1.2-6.56-3.58Z"/>
  <path class="cls-1" d="m380.44,55.29l-3.32,14.56c-.35,1.6-.52,2.74-.52,3.41,0,1.05.25,1.9.74,2.54.5.64,1.15.96,1.97.96s1.51-.23,2.16-.68c.66-.45,1.65-1.39,3-2.82l.52-.52.66.66c-1.72,2.1-3.16,3.58-4.31,4.44-1.15.86-2.28,1.29-3.39,1.29-1.4,0-2.51-.46-3.34-1.38-.83-.92-1.25-2.12-1.25-3.61,0-1.11.22-2.71.66-4.81l2.84-14.04h-4.2l.31-1.49h4.2l2.45-11.81,4.2-1.66-3.06,13.47h7.08l-.31,1.49h-7.08Z"/>
</svg>